{"title":"Raaz Reboot (2016) x264 DesiSCR Rip AC3 5.1 -DDR","uid":15847192,"size":1578087248,"categoryP":"video","categoryS":"movies","magnet":"?xt=urn:btih:c46d5e3e3ccdb6c533cd1c195c9ef9f994d82b96&amp;dn=Raaz+Reboot+%282016%29+x264+DesiSCR+Rip+AC3+5.1+-DDR&amp;tr=udp%3A%2F%2Ftracker.leechers-paradise.org%3A6969&amp;tr=udp%3A%2F%2Fzer0day.ch%3A1337&amp;tr=udp%3A%2F%2Fopen.demonii.com%3A1337&amp;tr=udp%3A%2F%2Ftracker.coppersurfer.tk%3A6969&amp;tr=udp%3A%2F%2Fexodus.desync.com%3A6969","seeders":35,"leechers":22,"uploader":"SaM","files":3,"time":1474116131,"description":"1/3 DvD x264 DesiSCR Rip\r\n\r\nHindi AC3 5.1 upmix Audio\r\n\r\n\r\n\r\nSCREENSHOTS\r\n \nhttp://extraimago.com/image/wduh \nhttp://extraimago.com/image/wdud \nhttp://extraimago.com/image/wduI \nhttp://extraimago.com/image/wdul \nhttp://extraimago.com/image/wdui \nhttp://extraimago.com/image/wdum \nhttp://extraimago.com/image/wduR \nhttp://extraimago.com/image/wduQ \nhttp://extraimago.com/image/wduL \nhttp://extraimago.com/image/wduy \nhttp://extraimago.com/image/wduq \nhttp://extraimago.com/image/wduS \nhttp://extraimago.com/image/wduO \nhttp://extraimago.com/image/wduE \nhttp://extraimago.com/image/wdu1 \nhttp://extraimago.com/image/wduc\r\n\r\nSpecs:\r\n\r\nNotes:\r\n\r\nUpmix using DTS Neural Upmix Plugin In Protools\r\n\r\nSame as what is used in all Hollywood studios and same plugin used to create DTS:X and DTS-HeadphoneX audio.\r\n\r\nNot the 1 line CLI using eac3to noob upmix.\r\n\r\nSource: DesiSCR @ ICTV\r\n\r\nFormat : Matroska\r\nFile size : 1.45 GiB\r\nDuration : 2 h 7 min\r\nOverall bit rate : 1 628 kb/s\r\nEncoded date : UTC 2016-09-16 21:20:30\r\nWriting application : mkvmerge v9.2.0 ('Photograph') 64bit\r\nWriting library : libebml v1.3.3 + libmatroska v1.4.4\r\n\r\nVideo\r\nID : 1\r\nFormat : AVC\r\nFormat/Info : Advanced Video Codec\r\nFormat profile :   \r\nFormat settings, CABAC : Yes\r\nFormat settings, ReFrames : 16 frames\r\nCodec ID : V_MPEG4/ISO/AVC\r\nDuration : 2 h 7 min\r\nBit rate : 1 370 kb/s\r\nWidth : 720 pixels\r\nHeight : 304 pixels\r\nDisplay aspect ratio : 2.35:1\r\nFrame rate mode : Constant\r\nFrame rate : 25.000 FPS\r\nColor space : YUV\r\nChroma subsampling : 4:2:0\r\nBit depth : 8 bits\r\nScan type : Progressive\r\nBits/(Pixel*Frame) : 0.250\r\nStream size : 1.22 GiB (84%)\r\nDefault : Yes\r\nForced : No\r\nColor range : Limited\r\nColor primaries : BT.601 NTSC\r\nTransfer characteristics : BT.470 System B, BT.470 System G\r\nMatrix coefficients : BT.601\r\n\r\nAudio\r\nID : 2\r\nFormat : AC-3\r\nFormat/Info : Audio Coding 3\r\nMode extension : CM (complete main)\r\nFormat settings, Endianness : Big\r\nCodec ID : A_AC3\r\nDuration : 2 h 7 min\r\nBit rate mode : Constant\r\nBit rate : 256 kb/s\r\nChannel(s) : 6 channels\r\nChannel positions : Front: L C R, Side: L R, LFE\r\nSampling rate : 48.0 kHz\r\nFrame rate : 31.250 FPS (1536 spf)\r\nCompression mode : Lossy\r\nStream size : 234 MiB (16%)\r\nLanguage : Hindi\r\nDefault : Yes\r\nForced : No","torrent":{"xt":"urn:btih:c46d5e3e3ccdb6c533cd1c195c9ef9f994d82b96","amp;dn":"Raaz+Reboot+%282016%29+x264+DesiSCR+Rip+AC3+5.1+-DDR","amp;tr":["udp%3A%2F%2Ftracker.leechers-paradise.org%3A6969","udp%3A%2F%2Fzer0day.ch%3A1337","udp%3A%2F%2Fopen.demonii.com%3A1337","udp%3A%2F%2Ftracker.coppersurfer.tk%3A6969","udp%3A%2F%2Fexodus.desync.com%3A6969"],"infoHash":"c46d5e3e3ccdb6c533cd1c195c9ef9f994d82b96","infoHashBuffer":{"type":"Buffer","data":[196,109,94,62,60,205,182,197,51,205,28,25,92,158,249,249,148,216,43,150]},"announce":[],"urlList":[]}}